<?xml version="1.0" encoding="UTF-8" standalone="no"?><!DOCTYPE svg PUBLIC "-//W3C//DTD SVG 1.1//EN" "http://www.w3.org/Graphics/SVG/1.1/DTD/svg11.dtd"><svg width="100%" height="100%" viewBox="0 0 2500 2500" version="1.1" xmlns="http://www.w3.org/2000/svg" xmlns:xlink="http://www.w3.org/1999/xlink" xml:space="preserve" xmlns:serif="http://www.serif.com/" style="fill-rule:evenodd;clip-rule:evenodd;stroke-linejoin:round;stroke-miterlimit:2;"><path d="M2272.85,267.806l-1074.91,0c-0,266.191 219.041,485.232 485.231,485.232l198.011,-0l0,191.183c0.175,267.742 217.175,484.75 484.917,484.925l-0,-1068.09c-0,-51.485 -41.737,-93.249 -93.249,-93.249Z" style="fill:#fff;fill-rule:nonzero;"/><path d="M1740.98,803.395l-1074.9,0c0.166,267.742 217.166,484.751 484.917,484.925l198.011,0l-0,191.795c0.341,267.742 217.489,484.602 485.231,484.602l0,-1068.06c0,-51.503 -41.754,-93.257 -93.257,-93.257l-0,-0.009Z" style="fill:#fff;fill-rule:nonzero;"/><path d="M1208.81,1338.68l-1074.91,-0c0,267.986 217.254,485.231 485.232,485.231l198.631,0l0,191.174c0.175,267.497 216.799,484.41 484.305,484.917l-0,-1068.07c-0,-51.503 -41.755,-93.257 -93.257,-93.257Z" style="fill:#fff;fill-rule:nonzero;"/></svg>